<?xml version="1.0" encoding="utf-8"?>
<!-- Generator: Adobe Illustrator 20.1.0, SVG Export Plug-In . SVG Version: 6.00 Build 0)  -->
<svg version="1.1" id="Layer_1" xmlns="http://www.w3.org/2000/svg" xmlns:xlink="http://www.w3.org/1999/xlink" x="0px" y="0px"
	 viewBox="0 0 180 180" style="enable-background:new 0 0 180 180;" xml:space="preserve">
<style type="text/css">
	.st0{opacity:0.8;}
	.st1{fill:#F62E9C;}
</style>
<g class="st0">
	<path class="st1" d="M90,179.5c-49.4,0-89.5-40.1-89.5-89.5S40.6,0.5,90,0.5s89.5,40.1,89.5,89.5S139.4,179.5,90,179.5z"/>
	<path d="M90,1c49.1,0,89,39.9,89,89s-39.9,89-89,89S1,139.1,1,90S40.9,1,90,1 M90,0C40.3,0,0,40.3,0,90s40.3,90,90,90
		s90-40.3,90-90S139.7,0,90,0L90,0z"/>
</g>
</svg>
